<svg width="559" height="554" viewBox="0 0 559 554" fill="none" xmlns="http://www.w3.org/2000/svg">
<path d="M100.384 -182.277C-71.2915 -204.562 -232.77 -84.4162 -258.11 74.7022C-262.124 97.2539 -262.92 120.282 -260.477 143.122C-245.391 277.151 -113.225 449.343 78.7303 443.441C227.661 438.818 361.809 328.39 383.965 180.679C409.621 10.0488 278.674 -159.126 100.384 -182.277Z" stroke="#343434" stroke-width="6" stroke-miterlimit="10"/>
<path d="M17.6691 -182.239C21.6049 -176.89 52.946 -133.416 36.2026 -97.7089C25.4312 -74.3488 -0.508015 -65.9666 -36.0324 -54.3458C-61.8769 -45.9573 -83.0805 -43.2055 -125.268 -37.6323C-151.39 -34.237 -175.019 -32.3733 -207.172 -21.2467C-216.459 -18.032 -223.923 -14.926 -228.839 -12.7653" stroke="#343434" stroke-width="6" stroke-miterlimit="10"/>
<path d="M-260.435 143.136C-214.924 134.708 -187.319 117.114 -170.427 102.426C-143.103 78.6298 -141.044 59.9466 -111.898 37.0367C-90.0596 19.8652 -73.556 16.6887 -29.5694 2.39701C63.5118 -27.5042 110.996 -42.5344 123.496 -67.0761C133.032 -85.7807 137.476 -119.371 100.382 -182.277" stroke="#343434" stroke-width="6" stroke-miterlimit="10"/>
<path d="M207.509 411.809C199.663 395.868 195.923 378.311 196.624 360.701C197.853 337.394 206.789 330.182 203.002 314.004C197.094 288.812 166.407 267.962 151.563 273.987C141.472 278.132 144.066 289.998 132.757 315.889C114.601 357.878 91.5529 363.244 90.5346 387.636C90.0186 399.321 94.4858 416.71 120.276 439.276" stroke="#343434" stroke-width="6" stroke-miterlimit="10"/>
<path d="M65.654 443.511C29.098 400.396 26.5451 371.411 30.492 353.255C36.736 324.43 59.3263 322.26 87.8383 276.661C116.35 231.062 109.893 207.828 130.335 200.925C158.227 191.645 196.038 226.841 212.159 246.742C227.219 265.335 233.639 283.272 239.153 299.192C248.792 327.15 253.269 356.526 252.371 385.922" stroke="#343434" stroke-width="6" stroke-miterlimit="10"/>
<path d="M-48.2253 419.942C-83.65 349.792 -131.276 227.502 -78.0355 144.724C-52.8392 105.537 -7.6713 79.3687 48.082 46.9616C137.273 -4.81379 188.275 -7.61431 206.94 -52.4276C221.759 -88.011 206.991 -128.099 192.658 -155.846" stroke="#343434" stroke-width="6" stroke-miterlimit="10"/>
<path d="M344.876 -17.0559C304.318 -11.3256 265.184 1.39811 229.267 20.5325C191.706 40.6305 150.683 62.4974 150.411 93.8332C150.085 120.389 179.017 140.824 216.101 166.807C247.165 188.676 267.113 202.683 295.79 203.273C345.648 204.304 379.81 163.91 386.556 155.6" stroke="#343434" stroke-width="6" stroke-miterlimit="10"/>
<path d="M261.228 43.99C263.351 44.6634 265.607 43.5225 266.267 41.4417C266.928 39.3608 265.742 37.128 263.619 36.4545C261.496 35.7811 259.24 36.922 258.58 39.0028C257.92 41.0837 259.106 43.3165 261.228 43.99Z" stroke="#343434" stroke-width="6" stroke-miterlimit="10"/>
<path d="M315.339 159.712C319.754 161.113 324.447 158.74 325.82 154.412C327.193 150.083 324.727 145.439 320.311 144.038C315.896 142.638 311.203 145.011 309.83 149.339C308.457 153.667 310.923 158.311 315.339 159.712Z" stroke="#343434" stroke-width="6" stroke-miterlimit="10"/>
<path d="M377.23 409.018C396.298 415.067 416.564 404.818 422.494 386.126C428.424 367.434 417.773 347.377 398.705 341.328C379.636 335.278 359.37 345.527 353.44 364.219C347.51 382.911 358.161 402.968 377.23 409.018Z" stroke="#343434" stroke-width="6" stroke-miterlimit="10"/>
<path d="M39.4421 176L42.3058 158.545H44.6921L41.8285 176H39.4421ZM31.5756 171.5L31.9762 169.114H45.408L45.0075 171.5H31.5756ZM33.3058 176L36.1694 158.545H38.5558L35.6921 176H33.3058ZM32.5898 165.432L32.9819 163.045H46.4137L46.0217 165.432H32.5898ZM58.6267 160.496C58.4107 169.184 58.3867 173.744 47.6107 175.784C48.1387 176.36 48.8107 177.44 49.0507 178.16C60.7147 175.736 61.2427 170.048 61.5307 160.496H58.6267ZM48.1867 168.176V170.816H69.4027V168.176H48.1867ZM59.2027 173.864C62.3467 175.112 65.6587 176.84 67.5787 178.16L69.4027 175.904C67.3867 174.656 63.8587 172.976 60.6667 171.8L59.2027 173.864ZM51.4987 162.248C53.1067 162.992 55.2667 164.168 56.2747 164.984L57.9307 162.824C56.8267 162.032 54.6427 160.952 53.0587 160.328L51.4987 162.248ZM48.7627 165.608C50.2507 166.28 52.2667 167.384 53.2267 168.128L54.8827 165.992C53.8507 165.272 51.8107 164.288 50.3467 163.688L48.7627 165.608ZM49.1227 156.92V159.608H67.3387V156.92H49.1227ZM66.4987 156.896V157.328C65.8987 159.032 64.8187 161.12 63.9067 162.44L66.2587 163.592C67.4107 162.056 68.6827 159.728 69.6187 157.592L67.4587 156.728L67.0027 156.896H66.4987ZM72.3787 159.008V161.792H93.1147V159.008H72.3787ZM71.8747 171.224V174.032H93.5947V171.224H71.8747ZM82.5307 162.68V178.16H85.6267V162.68H82.5307ZM74.6587 168.944C74.6587 168.368 76.6507 167.336 76.6507 167.336V167.24C78.7867 164.456 81.1867 160.4 82.8667 156.248L79.4827 155.384C78.2827 159.152 76.1467 163.136 75.4267 164.144C74.7307 165.176 74.2507 165.776 73.6027 165.968C73.9627 166.808 74.5147 168.32 74.6587 168.944ZM74.6587 168.944C74.8987 168.704 76.1467 168.56 77.4427 168.56H91.5307V165.824H76.2667L74.6587 166.76V168.944Z" fill="black"/>
</svg>
