<svg width="672" height="388" viewBox="0 0 672 388" fill="none" xmlns="http://www.w3.org/2000/svg">
<path d="M359.746 -288.354C167.724 -255.06 35.1987 -77.7492 62.2075 95.1969C65.5818 119.847 72.5742 143.934 82.9835 166.763C144.87 300.482 345.54 435.254 549.742 366.139C708.16 312.471 814.637 154.186 788.095 -5.91312C757.503 -190.873 559.17 -322.924 359.746 -288.354Z" stroke="#343434" stroke-width="6" stroke-miterlimit="10"/>
<path d="M83.0352 166.764C129.054 143.104 152.713 115.841 165.854 95.099C187.097 61.5101 182.942 41.5039 206.445 8.23368C224.052 -16.7006 240.699 -25.4043 283.082 -54.6291C372.887 -116.119 418.776 -147.256 423.84 -176.751C427.709 -199.233 421.035 -235.445 359.746 -288.354" stroke="#343434" stroke-width="6" stroke-miterlimit="10"/>
<path d="M677.306 291.14C663.445 277.223 653.444 260.285 648.194 241.836C641.572 217.318 648.713 206.923 639.131 191.428C624.198 167.303 584.126 155.804 570.232 166.91C560.805 174.511 567.635 185.936 564.311 216.436C559.117 265.838 536.185 278.955 543.405 304.527C546.833 316.786 557.559 333.31 592.956 348.192" stroke="#343434" stroke-width="6" stroke-miterlimit="10"/>
<path d="M535.718 370.503C481.752 337.895 469.131 308.744 467.183 288.664C464.067 256.791 487.596 247.131 502.684 190.594C517.773 134.057 502.918 112.138 522.525 98.286C549.326 79.5301 601.942 103.533 626.042 118.832C648.558 133.125 661.569 149.577 672.918 164.238C692.801 190 707.623 218.924 716.677 249.632" stroke="#343434" stroke-width="6" stroke-miterlimit="10"/>
<path d="M405.349 383.498C343.385 322.547 250.542 211.655 279.525 108.534C293.237 59.7201 332.841 17.8197 381.691 -34.0102C459.861 -116.855 513.696 -136.493 518.475 -188.985C522.266 -230.665 492.739 -267.294 467.885 -291.296" stroke="#343434" stroke-width="6" stroke-miterlimit="10"/>
<path d="M229.455 375.529C286.984 375.529 333.621 331.501 333.621 277.19C333.621 222.878 286.984 178.85 229.455 178.85C171.926 178.85 125.289 222.878 125.289 277.19C125.289 331.501 171.926 375.529 229.455 375.529Z" fill="white" stroke="#343434" stroke-width="6" stroke-miterlimit="10"/>
<path d="M678.709 -197.664C637.091 -178.422 599.387 -152.413 567.324 -120.826C533.823 -87.7033 497.205 -51.6136 507.593 -19.1034C516.293 8.4787 554.339 20.1245 603.033 34.835C643.858 47.2653 670.061 55.2089 701.07 46.4072C754.983 31.1083 777.915 -21.8984 782.33 -32.7106" stroke="#343434" stroke-width="6" stroke-miterlimit="10"/>
<path d="M373.165 180L376.028 162.545H378.415L375.551 180H373.165ZM365.298 175.5L365.699 173.114H379.131L378.73 175.5H365.298ZM367.028 180L369.892 162.545H372.278L369.415 180H367.028ZM366.312 169.432L366.705 167.045H380.136L379.744 169.432H366.312ZM381.837 164.28V167.208H403.077V164.28H381.837ZM386.781 175.176V178.104H397.917V175.176H386.781ZM390.885 159.624V182.16H393.957V159.624H390.885ZM390.021 165.336C388.317 169.752 384.837 174.072 380.901 176.232C381.549 176.808 382.509 177.912 382.989 178.632C387.189 175.992 390.597 171.408 392.661 166.176L390.021 165.336ZM394.821 165.408L392.205 166.272C394.293 171.384 397.653 175.968 401.877 178.56C402.357 177.744 403.389 176.544 404.109 175.944C400.077 173.856 396.573 169.68 394.821 165.408ZM408.861 161.856V182.136H411.669V161.856H408.861ZM405.213 166.368V169.056H414.837V166.368H405.213ZM409.029 167.448C408.261 170.112 406.581 173.592 404.901 175.512C405.357 176.232 405.981 177.432 406.245 178.272C408.093 175.896 409.797 171.624 410.709 168.192L409.029 167.448ZM413.157 159.84C411.165 160.656 408.141 161.4 405.405 161.808C405.693 162.432 406.053 163.392 406.173 164.04C408.981 163.704 412.269 163.104 414.765 162.192L413.157 159.84ZM411.597 169.176L410.349 170.328C411.069 171.36 412.557 173.784 413.109 175.008L414.789 172.752C414.309 172.152 412.197 169.752 411.597 169.176ZM422.157 159.6V182.136H424.989V159.6H422.157ZM414.429 175.08L414.861 177.84L427.821 175.56L427.389 172.848L414.429 175.08ZM415.989 162.696C417.309 163.752 418.893 165.288 419.565 166.32L421.581 164.52C420.837 163.488 419.181 162.048 417.861 161.064L415.989 162.696ZM415.101 169.008C416.493 170.064 418.173 171.648 418.941 172.704L420.909 170.856C420.093 169.8 418.317 168.336 416.925 167.352L415.101 169.008Z" fill="black"/>
</svg>
