<svg width="816" height="458" viewBox="0 0 816 458" fill="none" xmlns="http://www.w3.org/2000/svg">
<path d="M8.84083 244.606C-152.403 361.542 -192.63 589.6 -88.1675 742.751C-73.7154 764.79 -56.1957 784.687 -36.1128 801.869C82.3605 902.1 328.937 941.797 484.889 785.26C605.851 663.773 630.886 465.43 532.768 324.339C419.478 161.307 176.304 123.171 8.84083 244.606Z" stroke="#343434" stroke-width="6" stroke-miterlimit="10"/>
<path d="M-60.336 309.962C-52.819 311.328 7.73897 322.952 21.9295 366.053C31.3658 394.106 16.2817 421.605 -4.26472 459.384C-19.2645 486.814 -34.8329 505.862 -65.7307 543.843C-84.906 567.314 -103.205 587.535 -121.321 622.238C-126.553 632.262 -130.345 640.756 -132.752 646.446" stroke="#343434" stroke-width="6" stroke-miterlimit="10"/>
<path d="M-36.0611 801.845C-4.63773 758.849 4.56507 722.328 7.09888 696.697C11.1685 655.207 -1.8636 637.948 4.43033 595.76C9.14133 564.146 20.4415 548.454 45.9592 501.757C100.228 403.226 128.089 353.149 119.166 322.742C112.373 299.56 89.5629 267.945 8.84471 244.605" stroke="#343434" stroke-width="6" stroke-miterlimit="10"/>
<path d="M474.004 795.645C409.367 788.441 384.339 766.204 373.303 747.896C355.763 718.846 372.951 699.19 360.795 638.518C348.639 577.847 324.888 563.506 336.54 541.586C352.549 511.794 411.983 511.38 441.188 515.301C468.473 518.964 488.012 528.903 505.198 537.869C535.343 553.649 562.289 574.693 584.753 599.998" stroke="#343434" stroke-width="6" stroke-miterlimit="10"/>
<path d="M360.106 865.86C275.065 835.142 138.635 770.431 117.808 659.122C107.942 606.434 125.068 548.867 146.125 477.719C179.863 363.959 220.325 321.336 200.551 269.099C184.848 227.622 140.831 205.742 106.926 193.845" stroke="#343434" stroke-width="6" stroke-miterlimit="10"/>
<path d="M343.9 189.76C314.489 226.586 291.794 268.139 276.853 312.515C261.297 358.995 244.241 409.69 268.762 436.124C289.461 458.602 329.808 452.851 381.357 445.304C424.621 439.07 452.374 435.035 476.835 412.882C519.367 374.368 516.049 313.59 515.13 301.309" stroke="#343434" stroke-width="6" stroke-miterlimit="10"/>
<path d="M322.124 306.899C324.432 305.786 325.419 303.05 324.328 300.788C323.237 298.525 320.481 297.593 318.173 298.706C315.865 299.819 314.879 302.556 315.97 304.818C317.061 307.08 319.816 308.012 322.124 306.899Z" stroke="#343434" stroke-width="6" stroke-miterlimit="10"/>
<path d="M458.789 360.994C463.59 358.679 465.642 352.987 463.373 348.282C461.104 343.576 455.372 341.637 450.571 343.952C445.771 346.267 443.719 351.959 445.988 356.665C448.257 361.371 453.989 363.309 458.789 360.994Z" stroke="#343434" stroke-width="6" stroke-miterlimit="10"/>
<path d="M707.468 520.714C728.201 510.716 737.064 486.136 727.263 465.812C717.463 445.489 692.711 437.118 671.978 447.116C651.245 457.114 642.382 481.694 652.183 502.017C661.983 522.341 686.735 530.712 707.468 520.714Z" stroke="#343434" stroke-width="6" stroke-miterlimit="10"/>
<path d="M331.165 386L334.028 368.545H336.415L333.551 386H331.165ZM323.298 381.5L323.699 379.114H337.131L336.73 381.5H323.298ZM325.028 386L327.892 368.545H330.278L327.415 386H325.028ZM324.312 375.432L324.705 373.045H338.136L337.744 375.432H324.312ZM340.845 368.12V371.12H360.093V368.12H340.845ZM339.501 383.6V386.504H361.461V383.6H339.501ZM348.693 369.752V384.752H351.981V369.752H348.693ZM374.253 369.536L372.909 372.272H385.773V369.536H374.253ZM377.421 374.816V377.432H385.149V374.816H377.421ZM377.397 380.12V382.808H385.461V380.12H377.397ZM375.957 370.448V388.16H378.909V370.448H375.957ZM374.805 365.84C373.701 369.32 371.805 372.776 369.693 374.936C370.317 375.392 371.421 376.424 371.877 376.952C374.085 374.456 376.245 370.472 377.589 366.584L374.805 365.84ZM368.469 365.72C367.245 369.152 365.157 372.56 362.949 374.744C363.453 375.464 364.269 377.096 364.533 377.816C367.173 375.08 369.693 370.688 371.253 366.608L368.469 365.72ZM366.045 372.344V388.136H368.949V369.464L368.925 369.44L366.045 372.344Z" fill="black"/>
</svg>
