<svg width="664" height="381" viewBox="0 0 664 381" fill="none" xmlns="http://www.w3.org/2000/svg">
<path d="M382.165 228L385.028 210.545H387.415L384.551 228H382.165ZM374.298 223.5L374.699 221.114H388.131L387.73 223.5H374.298ZM376.028 228L378.892 210.545H381.278L378.415 228H376.028ZM375.312 217.432L375.705 215.045H389.136L388.744 217.432H375.312ZM400.365 208.824V211.512H412.221V208.824H400.365ZM399.741 217.416V220.152H412.701V217.416H399.741ZM407.445 210V230.16H410.181V210H407.445ZM402.045 210.048V218.184C402.045 221.448 401.733 225.912 399.189 228.672C399.837 229.032 400.893 229.848 401.373 230.328C404.325 227.232 404.757 222.168 404.757 218.208V210.048H402.045ZM390.477 208.752V211.368H399.237V208.752H390.477ZM393.165 216.168V218.712H396.477V224.712H393.165V227.256H398.949V216.168H393.165ZM393.261 210.024C392.685 213.672 391.653 217.152 389.949 219.408C390.357 220.248 390.861 222.072 390.981 222.84C393.453 219.864 394.965 215.184 395.877 210.624L393.261 210.024ZM391.941 216.168V229.032H394.317V216.168H391.941ZM416.133 220.32V222.984H430.149V220.32H416.133ZM428.541 220.32V226.344C428.541 229.152 429.285 229.992 431.637 229.992C432.117 229.992 433.293 229.992 433.797 229.992C435.885 229.992 436.629 228.936 436.917 224.952C436.125 224.736 434.781 224.256 434.181 223.728C434.109 226.728 434.013 227.184 433.461 227.184C433.221 227.184 432.381 227.184 432.189 227.184C431.661 227.184 431.589 227.088 431.589 226.296V220.32H428.541ZM424.005 207.6V211.392H426.957V207.6H424.005ZM421.077 211.656C420.765 214.584 420.045 216.24 414.669 217.104C415.221 217.656 415.893 218.736 416.133 219.456C422.469 218.184 423.669 215.736 424.125 211.656H421.077ZM426.717 211.752V215.544C426.717 217.944 427.293 218.736 429.933 218.736C430.461 218.736 432.069 218.736 432.621 218.736C434.541 218.736 435.285 218.088 435.573 215.568C434.829 215.4 433.629 214.968 433.077 214.56C433.005 216 432.885 216.216 432.309 216.216C431.949 216.216 430.677 216.216 430.365 216.216C429.669 216.216 429.573 216.144 429.573 215.496V211.752H426.717ZM415.149 209.688V214.608H418.029V212.256H432.933V214.392H435.981V209.688H415.149ZM422.445 217.68V220.752C422.445 223.152 421.413 226.152 414.285 227.904C414.933 228.552 415.797 229.56 416.205 230.28C424.101 228.24 425.349 224.208 425.349 220.824V217.68H422.445ZM442.413 211.968V214.776H459.117V211.968H442.413ZM441.429 219.048V221.808H458.205V219.048H441.429ZM438.645 226.656V229.464H460.341V226.656H438.645ZM447.981 207.624V228.048H450.981V207.624H447.981ZM442.437 207.912C441.573 211.224 440.037 214.536 438.141 216.552C438.885 216.96 440.157 217.8 440.733 218.304C442.605 216 444.357 212.304 445.413 208.584L442.437 207.912Z" fill="black"/>
<path d="M608.267 162.937C426.777 110.138 236.502 207.152 187.194 368.178C179.752 390.927 175.703 414.726 175.162 438.89C172.799 580.814 291.024 782.618 498.227 809.617C658.993 830.52 818.536 738.889 862.839 589.172C914.082 416.235 796.749 217.778 608.267 162.937Z" stroke="#343434" stroke-width="6" stroke-miterlimit="10"/>
<path d="M519.332 148.699C522.822 154.937 550.491 205.538 527.538 239.765C512.718 262.187 483.667 266.423 443.861 272.37C414.911 276.629 391.732 275.829 345.6 274.34C317.044 273.36 291.38 271.218 255.268 277.234C244.837 278.972 236.381 280.913 230.796 282.31" stroke="#343434" stroke-width="6" stroke-miterlimit="10"/>
<path d="M175.207 438.911C225.308 438.006 257.427 424.483 277.625 412.131C310.303 392.112 315.108 373.047 349.621 354.264C375.481 340.184 393.666 339.731 442.941 332.468C547.165 317.454 600.302 310.027 617.145 286.675C629.991 268.878 639.427 234.728 608.267 162.936" stroke="#343434" stroke-width="6" stroke-miterlimit="10"/>
<path d="M364.987 763.275C336.626 684.242 302.377 548.903 371.097 472.047C403.621 435.663 455.812 416.259 520.25 392.196C623.324 353.773 678.548 359.666 704.83 316.306C725.696 281.875 715.377 237.655 703.814 206.34" stroke="#343434" stroke-width="6" stroke-miterlimit="10"/>
<path d="M848.229 376.884C803.827 375.839 759.988 382.31 718.718 396C675.547 410.407 628.408 426.056 623.771 458.582C619.738 486.129 648.011 512.365 684.28 545.775C714.646 573.87 734.152 591.873 764.902 597.437C818.366 607.116 860.696 571.023 869.102 563.55" stroke="#343434" stroke-width="6" stroke-miterlimit="10"/>
<path d="M268.138 163.331C287.802 172.911 311.011 165.756 319.979 147.35C328.947 128.944 320.276 106.256 300.613 96.6761C280.95 87.096 257.74 94.251 248.772 112.657C239.805 131.064 248.475 153.751 268.138 163.331Z" stroke="#343434" stroke-width="6" stroke-miterlimit="10"/>
</svg>
