<svg width="858" height="687" viewBox="0 0 858 687" fill="none" xmlns="http://www.w3.org/2000/svg">
<g opacity="0.08">
<path d="M359.841 9.51345C167.818 42.8082 35.2934 220.118 62.3022 393.065C65.6765 417.715 72.6689 441.801 83.0782 464.631C144.965 598.349 345.635 733.122 549.837 664.007C708.254 610.338 814.731 452.054 788.19 291.955C757.597 106.995 559.264 -25.0562 359.841 9.51345Z" stroke="#343434" stroke-width="8" stroke-miterlimit="10"/>
<path d="M270.997 36.7031C277.048 40.9446 325.534 75.6368 319.717 118.077C316.107 145.781 291.098 162.968 256.896 186.652C231.99 203.814 210.15 213.621 166.728 233.235C139.823 245.322 115.073 255.007 84.3249 277.072C75.4432 283.447 68.4832 289.11 63.9385 292.96" stroke="#343434" stroke-width="8" stroke-miterlimit="10"/>
<path d="M83.1309 464.631C129.15 440.972 152.808 413.708 165.949 392.967C187.193 359.378 183.037 339.372 206.54 306.101C224.148 281.167 240.795 272.463 283.178 243.239C372.982 181.749 418.871 150.612 423.935 121.117C427.805 98.6346 421.131 62.4223 359.841 9.51367" stroke="#343434" stroke-width="8" stroke-miterlimit="10"/>
<path d="M677.402 589.008C663.54 575.091 653.539 558.153 648.29 539.703C641.667 515.186 648.809 504.791 639.226 489.295C624.293 465.17 584.222 453.672 570.328 464.778C560.901 472.378 567.731 483.804 564.407 514.303C559.213 563.706 536.281 576.823 543.501 602.395C546.929 614.653 557.654 631.178 593.052 646.06" stroke="#343434" stroke-width="8" stroke-miterlimit="10"/>
<path d="M535.814 668.371C481.848 635.763 469.227 606.612 467.279 586.532C464.162 554.659 487.691 544.999 502.78 488.462C517.868 431.925 503.014 410.006 522.621 396.154C549.422 377.398 602.037 401.4 626.137 416.699C648.653 430.993 661.664 447.444 673.013 462.106C692.897 487.868 707.719 516.792 716.773 547.5" stroke="#343434" stroke-width="8" stroke-miterlimit="10"/>
<path d="M405.444 681.365C343.48 620.415 250.637 509.522 279.619 406.402C293.332 357.588 332.936 315.687 381.785 263.857C459.955 181.013 513.791 161.375 518.57 108.883C522.361 67.203 492.833 30.5739 467.98 6.57129" stroke="#343434" stroke-width="8" stroke-miterlimit="10"/>
<path d="M229.55 673.397C287.079 673.397 333.715 629.369 333.715 575.058C333.715 520.746 287.079 476.718 229.55 476.718C172.02 476.718 125.384 520.746 125.384 575.058C125.384 629.369 172.02 673.397 229.55 673.397Z" fill="white" stroke="#343434" stroke-width="8" stroke-miterlimit="10"/>
<path d="M678.805 100.204C637.187 119.445 599.483 145.455 567.42 177.041C533.918 210.164 497.301 246.254 507.689 278.764C516.389 306.346 554.435 317.992 603.129 332.703C643.953 345.133 670.157 353.077 701.165 344.275C755.079 328.976 778.011 275.969 782.426 265.157" stroke="#343434" stroke-width="8" stroke-miterlimit="10"/>
<path d="M609.751 190.82C612.261 190.82 614.296 188.899 614.296 186.529C614.296 184.16 612.261 182.239 609.751 182.239C607.241 182.239 605.206 184.16 605.206 186.529C605.206 188.899 607.241 190.82 609.751 190.82Z" stroke="#343434" stroke-width="8" stroke-miterlimit="10"/>
<path d="M707.32 292.788C712.541 292.788 716.773 288.793 716.773 283.864C716.773 278.935 712.541 274.939 707.32 274.939C702.1 274.939 697.867 278.935 697.867 283.864C697.867 288.793 702.1 292.788 707.32 292.788Z" stroke="#343434" stroke-width="8" stroke-miterlimit="10"/>
<path d="M44.8249 164.758C67.3718 164.758 85.6497 147.503 85.6497 126.217C85.6497 104.931 67.3718 87.6753 44.8249 87.6753C22.2779 87.6753 4 104.931 4 126.217C4 147.503 22.2779 164.758 44.8249 164.758Z" stroke="#343434" stroke-width="8" stroke-miterlimit="10"/>
<path d="M858.777 530.412C881.324 530.412 899.602 513.156 899.602 491.87C899.602 470.584 881.324 453.329 858.777 453.329C836.23 453.329 817.952 470.584 817.952 491.87C817.952 513.156 836.23 530.412 858.777 530.412Z" stroke="#343434" stroke-width="8" stroke-miterlimit="10"/>
</g>
</svg>
