<svg width="816" height="458" viewBox="0 0 816 458" fill="none" xmlns="http://www.w3.org/2000/svg">
<path d="M8.84083 244.606C-152.403 361.542 -192.63 589.6 -88.1675 742.751C-73.7154 764.79 -56.1957 784.687 -36.1128 801.869C82.3605 902.1 328.937 941.797 484.889 785.26C605.851 663.773 630.886 465.43 532.768 324.339C419.478 161.307 176.304 123.171 8.84083 244.606Z" stroke="#343434" stroke-width="6" stroke-miterlimit="10"/>
<path d="M-60.336 309.962C-52.819 311.328 7.73897 322.952 21.9295 366.053C31.3658 394.106 16.2817 421.605 -4.26472 459.384C-19.2645 486.814 -34.8329 505.862 -65.7307 543.843C-84.906 567.314 -103.205 587.535 -121.321 622.238C-126.553 632.262 -130.345 640.756 -132.752 646.446" stroke="#343434" stroke-width="6" stroke-miterlimit="10"/>
<path d="M-36.0611 801.845C-4.63773 758.849 4.56507 722.328 7.09888 696.697C11.1685 655.207 -1.8636 637.948 4.43033 595.76C9.14133 564.146 20.4415 548.454 45.9592 501.757C100.228 403.226 128.089 353.149 119.166 322.742C112.373 299.56 89.5629 267.945 8.84471 244.605" stroke="#343434" stroke-width="6" stroke-miterlimit="10"/>
<path d="M474.004 795.645C409.367 788.441 384.339 766.204 373.303 747.896C355.763 718.846 372.951 699.19 360.795 638.518C348.639 577.847 324.888 563.506 336.54 541.586C352.549 511.794 411.983 511.38 441.188 515.301C468.473 518.964 488.012 528.903 505.198 537.869C535.343 553.649 562.289 574.693 584.753 599.998" stroke="#343434" stroke-width="6" stroke-miterlimit="10"/>
<path d="M360.106 865.86C275.065 835.142 138.635 770.431 117.808 659.122C107.942 606.434 125.068 548.867 146.125 477.719C179.863 363.959 220.325 321.336 200.551 269.099C184.848 227.622 140.831 205.742 106.926 193.845" stroke="#343434" stroke-width="6" stroke-miterlimit="10"/>
<path d="M343.9 189.76C314.489 226.586 291.794 268.139 276.853 312.515C261.297 358.995 244.241 409.69 268.762 436.124C289.461 458.602 329.808 452.851 381.357 445.304C424.621 439.07 452.374 435.035 476.835 412.882C519.367 374.368 516.049 313.59 515.13 301.309" stroke="#343434" stroke-width="6" stroke-miterlimit="10"/>
<path d="M322.124 306.899C324.432 305.786 325.419 303.05 324.328 300.788C323.237 298.525 320.481 297.593 318.173 298.706C315.865 299.819 314.879 302.556 315.97 304.818C317.061 307.08 319.816 308.012 322.124 306.899Z" stroke="#343434" stroke-width="6" stroke-miterlimit="10"/>
<path d="M458.789 360.994C463.59 358.679 465.642 352.987 463.373 348.282C461.104 343.576 455.372 341.637 450.571 343.952C445.771 346.267 443.719 351.959 445.988 356.665C448.257 361.371 453.989 363.309 458.789 360.994Z" stroke="#343434" stroke-width="6" stroke-miterlimit="10"/>
<path d="M707.468 520.714C728.201 510.716 737.064 486.136 727.263 465.812C717.463 445.489 692.711 437.118 671.978 447.116C651.245 457.114 642.382 481.694 652.183 502.017C661.983 522.341 686.735 530.712 707.468 520.714Z" stroke="#343434" stroke-width="6" stroke-miterlimit="10"/>
<path d="M331.165 386L334.028 368.545L336.415 368.545L333.551 386L331.165 386ZM323.298 381.5L323.699 379.114L337.131 379.114L336.73 381.5L323.298 381.5ZM325.028 386L327.892 368.545L330.278 368.545L327.415 386L325.028 386ZM324.312 375.432L324.705 373.045L338.136 373.045L337.744 375.432L324.312 375.432ZM339.765 368.96L339.765 371.72L361.173 371.72L361.173 368.96L339.765 368.96ZM347.589 376.736L347.589 379.4L360.165 379.4L360.165 376.736L347.589 376.736ZM346.653 384.896L346.653 387.56L361.077 387.56L361.077 384.896L346.653 384.896ZM352.485 372.752L352.485 386.312L355.389 386.312L355.389 372.752L352.485 372.752ZM347.325 365.6C346.077 370.448 343.341 375.824 338.997 378.656C339.429 379.352 340.101 380.624 340.389 381.44C345.525 377.936 348.549 372.104 350.325 366.32L347.325 365.6ZM342.525 375.656L342.525 388.112L345.429 388.112L345.429 375.656L342.525 375.656ZM372.117 368.96L372.117 371.624L385.461 371.624L385.461 368.96L372.117 368.96ZM377.325 365.624L377.325 370.16L380.133 370.16L380.133 365.624L377.325 365.624ZM374.925 371.816C374.157 373.496 372.789 375.392 371.349 376.52C371.973 376.976 372.885 377.816 373.317 378.368C374.901 377.048 376.437 374.984 377.493 372.92L374.925 371.816ZM379.893 373.016C381.309 374.576 382.869 376.76 383.445 378.176L385.893 376.76C385.197 375.296 383.589 373.256 382.125 371.744L379.893 373.016ZM376.701 376.328L374.205 377C376.077 382.208 379.173 386.24 383.949 388.232C384.381 387.44 385.293 386.264 385.941 385.664C381.453 384.104 378.261 380.576 376.701 376.328ZM380.181 376.16C379.101 380.528 376.221 384.224 370.989 385.952C371.469 386.504 372.165 387.584 372.453 388.232C378.261 386.168 381.453 381.968 383.061 376.736L380.181 376.16ZM363.501 370.568L363.501 373.256L371.853 373.256L371.853 370.568L363.501 370.568ZM366.573 365.624L366.573 388.16L369.237 388.16L369.237 365.624L366.573 365.624ZM366.525 372.416C365.925 375.488 364.509 379.232 362.949 381.32C363.381 382.016 364.005 383.144 364.269 383.936C366.021 381.464 367.461 376.832 368.157 372.992L366.525 372.416ZM369.117 374.336L367.869 375.536C368.565 376.76 370.077 379.568 370.677 381.056L372.237 378.896C371.781 378.176 369.693 375.008 369.117 374.336Z" fill="black"/>
</svg>
