<svg width="664" height="381" viewBox="0 0 664 381" fill="none" xmlns="http://www.w3.org/2000/svg">
<path d="M608.267 162.937C426.777 110.138 236.502 207.152 187.194 368.178C179.752 390.927 175.703 414.726 175.162 438.89C172.799 580.814 291.024 782.618 498.227 809.617C658.993 830.52 818.536 738.889 862.839 589.172C914.082 416.235 796.749 217.778 608.267 162.937Z" stroke="#343434" stroke-width="6" stroke-miterlimit="10"/>
<path d="M519.332 148.699C522.822 154.937 550.491 205.538 527.538 239.765C512.718 262.187 483.667 266.423 443.861 272.37C414.911 276.629 391.732 275.829 345.6 274.34C317.044 273.36 291.38 271.218 255.268 277.234C244.837 278.972 236.381 280.913 230.796 282.31" stroke="#343434" stroke-width="6" stroke-miterlimit="10"/>
<path d="M175.207 438.911C225.308 438.006 257.427 424.483 277.625 412.131C310.303 392.112 315.108 373.047 349.621 354.264C375.481 340.184 393.666 339.731 442.941 332.468C547.165 317.454 600.302 310.027 617.145 286.675C629.991 268.878 639.427 234.728 608.267 162.936" stroke="#343434" stroke-width="6" stroke-miterlimit="10"/>
<path d="M364.987 763.275C336.626 684.242 302.377 548.903 371.097 472.047C403.621 435.663 455.812 416.259 520.25 392.196C623.324 353.773 678.548 359.666 704.83 316.306C725.696 281.875 715.377 237.655 703.814 206.34" stroke="#343434" stroke-width="6" stroke-miterlimit="10"/>
<path d="M848.229 376.884C803.827 375.839 759.988 382.31 718.718 396C675.547 410.407 628.408 426.056 623.771 458.582C619.738 486.129 648.011 512.365 684.28 545.775C714.646 573.87 734.152 591.873 764.902 597.437C818.366 607.116 860.696 571.023 869.102 563.55" stroke="#343434" stroke-width="6" stroke-miterlimit="10"/>
<path d="M268.138 163.331C287.802 172.911 311.011 165.756 319.979 147.35C328.947 128.944 320.276 106.256 300.613 96.6761C280.95 87.096 257.74 94.251 248.772 112.657C239.805 131.064 248.475 153.751 268.138 163.331Z" stroke="#343434" stroke-width="6" stroke-miterlimit="10"/>
<path d="M382.165 228L385.028 210.545H387.415L384.551 228H382.165ZM374.298 223.5L374.699 221.114H388.131L387.73 223.5H374.298ZM376.028 228L378.892 210.545H381.278L378.415 228H376.028ZM375.312 217.432L375.705 215.045H389.136L388.744 217.432H375.312ZM394.485 210.648V213.168H400.797V210.648H394.485ZM401.685 207.84V215.712C401.685 218.4 402.405 219.24 405.333 219.24C405.933 219.24 408.237 219.24 408.885 219.24C411.237 219.24 412.005 218.304 412.317 215.04C411.549 214.872 410.373 214.416 409.749 213.984C409.629 216.288 409.461 216.696 408.621 216.696C408.069 216.696 406.197 216.696 405.741 216.696C404.757 216.696 404.613 216.576 404.613 215.688V207.84H401.685ZM409.893 209.184C408.165 210.12 405.453 211.2 403.029 211.92C403.341 212.496 403.749 213.48 403.893 214.08C406.485 213.432 409.485 212.496 411.861 211.488L409.893 209.184ZM399.885 219.384V230.136H402.789V219.384H399.885ZM390.501 222V224.592H412.437V222H390.501ZM392.325 219.984C393.021 219.6 394.149 219.36 400.965 217.968C400.893 217.368 400.845 216.192 400.917 215.424L393.405 216.792L392.133 217.68L392.325 219.984ZM392.325 219.984C392.325 218.976 395.301 217.176 395.301 217.176V207.936H392.349V215.352C392.349 216.48 391.557 217.224 391.005 217.584C391.461 218.112 392.133 219.312 392.325 219.984ZM414.669 226.176V229.032H436.269V226.176H414.669ZM420.885 207.936V227.256H423.861V207.936H420.885ZM427.029 207.912V227.424H429.981V207.912H427.029ZM433.437 212.736C432.597 215.664 431.061 219.288 429.813 221.544L432.189 222.768C433.461 220.44 434.973 217.032 436.053 213.984L433.437 212.736ZM414.981 213.48C416.061 216.408 417.333 220.32 417.861 222.624L420.741 221.592C420.117 219.288 418.725 215.52 417.621 212.688L414.981 213.48Z" fill="black"/>
</svg>
