<svg width="559" height="554" viewBox="0 0 559 554" fill="none" xmlns="http://www.w3.org/2000/svg">
<path d="M100.384 -182.277C-71.2915 -204.562 -232.77 -84.4162 -258.11 74.7022C-262.124 97.2539 -262.92 120.282 -260.477 143.122C-245.391 277.151 -113.225 449.343 78.7303 443.441C227.661 438.818 361.809 328.39 383.965 180.679C409.621 10.0488 278.674 -159.126 100.384 -182.277Z" stroke="#343434" stroke-width="6" stroke-miterlimit="10"/>
<path d="M17.6691 -182.239C21.6049 -176.89 52.946 -133.416 36.2026 -97.7089C25.4312 -74.3488 -0.508015 -65.9666 -36.0324 -54.3458C-61.8769 -45.9573 -83.0805 -43.2055 -125.268 -37.6323C-151.39 -34.237 -175.019 -32.3733 -207.172 -21.2467C-216.459 -18.032 -223.923 -14.926 -228.839 -12.7653" stroke="#343434" stroke-width="6" stroke-miterlimit="10"/>
<path d="M-260.435 143.136C-214.924 134.708 -187.319 117.114 -170.427 102.426C-143.103 78.6298 -141.044 59.9466 -111.898 37.0367C-90.0596 19.8652 -73.556 16.6887 -29.5694 2.39701C63.5118 -27.5042 110.996 -42.5344 123.496 -67.0761C133.032 -85.7807 137.476 -119.371 100.382 -182.277" stroke="#343434" stroke-width="6" stroke-miterlimit="10"/>
<path d="M207.509 411.809C199.663 395.868 195.923 378.311 196.624 360.701C197.853 337.394 206.789 330.182 203.002 314.004C197.094 288.812 166.407 267.962 151.563 273.987C141.472 278.132 144.066 289.998 132.757 315.889C114.601 357.878 91.5529 363.244 90.5346 387.636C90.0186 399.321 94.4858 416.71 120.276 439.276" stroke="#343434" stroke-width="6" stroke-miterlimit="10"/>
<path d="M65.654 443.511C29.098 400.396 26.5451 371.411 30.492 353.255C36.736 324.43 59.3263 322.26 87.8383 276.661C116.35 231.062 109.893 207.828 130.335 200.925C158.227 191.645 196.038 226.841 212.159 246.742C227.219 265.335 233.639 283.272 239.153 299.192C248.792 327.15 253.269 356.526 252.371 385.922" stroke="#343434" stroke-width="6" stroke-miterlimit="10"/>
<path d="M-48.2253 419.942C-83.65 349.792 -131.276 227.502 -78.0355 144.724C-52.8392 105.537 -7.6713 79.3687 48.082 46.9616C137.273 -4.81379 188.275 -7.61431 206.94 -52.4276C221.759 -88.011 206.991 -128.099 192.658 -155.846" stroke="#343434" stroke-width="6" stroke-miterlimit="10"/>
<path d="M344.876 -17.0559C304.318 -11.3256 265.184 1.39811 229.267 20.5325C191.706 40.6305 150.683 62.4974 150.411 93.8332C150.085 120.389 179.017 140.824 216.101 166.807C247.165 188.676 267.113 202.683 295.79 203.273C345.648 204.304 379.81 163.91 386.556 155.6" stroke="#343434" stroke-width="6" stroke-miterlimit="10"/>
<path d="M261.228 43.99C263.351 44.6634 265.607 43.5225 266.267 41.4417C266.928 39.3608 265.742 37.128 263.619 36.4545C261.496 35.7811 259.24 36.922 258.58 39.0028C257.92 41.0837 259.106 43.3165 261.228 43.99Z" stroke="#343434" stroke-width="6" stroke-miterlimit="10"/>
<path d="M315.339 159.712C319.754 161.113 324.447 158.74 325.82 154.412C327.193 150.083 324.727 145.439 320.311 144.038C315.896 142.638 311.203 145.011 309.83 149.339C308.457 153.667 310.923 158.311 315.339 159.712Z" stroke="#343434" stroke-width="6" stroke-miterlimit="10"/>
<path d="M377.23 409.018C396.298 415.067 416.564 404.818 422.494 386.126C428.424 367.434 417.773 347.377 398.705 341.328C379.636 335.278 359.37 345.527 353.44 364.219C347.51 382.911 358.161 402.968 377.23 409.018Z" stroke="#343434" stroke-width="6" stroke-miterlimit="10"/>
<path d="M33.4421 170L36.3058 152.545H38.6921L35.8285 170H33.4421ZM25.5756 165.5L25.9762 163.114H39.408L39.0075 165.5H25.5756ZM27.3058 170L30.1694 152.545H32.5558L29.6921 170H27.3058ZM26.5898 159.432L26.9819 157.045H40.4137L40.0217 159.432H26.5898ZM48.3067 157.856V160.328H63.7387V157.856H48.3067ZM51.1867 152.624V155.048H62.7307V152.624H51.1867ZM54.8827 149.744V158.792H57.7387V149.744H54.8827ZM50.8267 150.368C50.2747 152.456 49.2667 154.544 47.9467 155.864C48.6187 156.2 49.7707 156.968 50.3227 157.4C51.6187 155.864 52.8667 153.416 53.5627 150.944L50.8267 150.368ZM56.7307 159.32V164.576C56.7307 167.096 57.2107 167.96 59.5147 167.96C59.9467 167.96 60.8587 167.96 61.3147 167.96C63.0907 167.96 63.8107 167.12 64.0747 163.904C63.3067 163.712 62.1067 163.28 61.5787 162.8C61.5067 165.008 61.4107 165.296 61.0027 165.296C60.8107 165.296 60.1627 165.296 60.0187 165.296C59.6107 165.296 59.5627 165.224 59.5627 164.552V159.32H56.7307ZM52.4107 159.224C52.1227 162.104 51.5467 164.408 47.8267 165.752C48.4507 166.304 49.2427 167.384 49.5547 168.128C53.9947 166.28 54.9307 163.136 55.2907 159.224H52.4107ZM41.7547 151.928C43.0987 153.104 44.6827 154.76 45.3547 155.936L47.7307 154.112C46.9627 152.984 45.3067 151.4 43.9627 150.32L41.7547 151.928ZM47.2267 158.888H41.8027V161.552H44.4667V168.008H47.2267V158.888ZM46.9627 166.928C45.4267 166.928 43.3147 168.224 41.4907 169.904L43.3867 172.4C44.6827 170.912 46.0027 169.496 46.8907 169.496C47.4187 169.496 48.1867 170.192 49.1707 170.792C50.7787 171.704 52.6747 172.016 55.5307 172.016C57.8827 172.016 61.4827 171.872 63.2587 171.752C63.2827 170.984 63.7387 169.568 64.0507 168.8C61.7227 169.136 58.0027 169.328 55.6027 169.328C53.1067 169.328 51.0427 169.208 49.5307 168.272C48.3067 167.552 47.7067 166.928 46.9627 166.928ZM74.3947 152.96V155.624H87.7387V152.96H74.3947ZM79.6027 149.624V154.16H82.4107V149.624H79.6027ZM77.2027 155.816C76.4347 157.496 75.0667 159.392 73.6267 160.52C74.2507 160.976 75.1627 161.816 75.5947 162.368C77.1787 161.048 78.7147 158.984 79.7707 156.92L77.2027 155.816ZM82.1707 157.016C83.5867 158.576 85.1467 160.76 85.7227 162.176L88.1707 160.76C87.4747 159.296 85.8667 157.256 84.4027 155.744L82.1707 157.016ZM78.9787 160.328L76.4827 161C78.3547 166.208 81.4507 170.24 86.2267 172.232C86.6587 171.44 87.5707 170.264 88.2187 169.664C83.7307 168.104 80.5387 164.576 78.9787 160.328ZM82.4587 160.16C81.3787 164.528 78.4987 168.224 73.2667 169.952C73.7467 170.504 74.4427 171.584 74.7307 172.232C80.5387 170.168 83.7307 165.968 85.3387 160.736L82.4587 160.16ZM65.7787 154.568V157.256H74.1307V154.568H65.7787ZM68.8507 149.624V172.16H71.5147V149.624H68.8507ZM68.8027 156.416C68.2027 159.488 66.7867 163.232 65.2267 165.32C65.6587 166.016 66.2827 167.144 66.5467 167.936C68.2987 165.464 69.7387 160.832 70.4347 156.992L68.8027 156.416ZM71.3947 158.336L70.1467 159.536C70.8427 160.76 72.3547 163.568 72.9547 165.056L74.5147 162.896C74.0587 162.176 71.9707 159.008 71.3947 158.336ZM96.3067 157.856V160.328H111.739V157.856H96.3067ZM99.1867 152.624V155.048H110.731V152.624H99.1867ZM102.883 149.744V158.792H105.739V149.744H102.883ZM98.8267 150.368C98.2747 152.456 97.2667 154.544 95.9467 155.864C96.6187 156.2 97.7707 156.968 98.3227 157.4C99.6187 155.864 100.867 153.416 101.563 150.944L98.8267 150.368ZM104.731 159.32V164.576C104.731 167.096 105.211 167.96 107.515 167.96C107.947 167.96 108.859 167.96 109.315 167.96C111.091 167.96 111.811 167.12 112.075 163.904C111.307 163.712 110.107 163.28 109.579 162.8C109.507 165.008 109.411 165.296 109.003 165.296C108.811 165.296 108.163 165.296 108.019 165.296C107.611 165.296 107.563 165.224 107.563 164.552V159.32H104.731ZM100.411 159.224C100.123 162.104 99.5467 164.408 95.8267 165.752C96.4507 166.304 97.2427 167.384 97.5547 168.128C101.995 166.28 102.931 163.136 103.291 159.224H100.411ZM89.7547 151.928C91.0987 153.104 92.6827 154.76 93.3547 155.936L95.7307 154.112C94.9627 152.984 93.3067 151.4 91.9627 150.32L89.7547 151.928ZM95.2267 158.888H89.8027V161.552H92.4667V168.008H95.2267V158.888ZM94.9627 166.928C93.4267 166.928 91.3147 168.224 89.4907 169.904L91.3867 172.4C92.6827 170.912 94.0027 169.496 94.8907 169.496C95.4187 169.496 96.1867 170.192 97.1707 170.792C98.7787 171.704 100.675 172.016 103.531 172.016C105.883 172.016 109.483 171.872 111.259 171.752C111.283 170.984 111.739 169.568 112.051 168.8C109.723 169.136 106.003 169.328 103.603 169.328C101.107 169.328 99.0427 169.208 97.5307 168.272C96.3067 167.552 95.7067 166.928 94.9627 166.928ZM113.899 156.608V159.368H135.355V156.608H113.899ZM115.915 151.832V154.568H133.627V151.832H115.915ZM120.379 161.384V164.072H131.947V161.384H120.379ZM131.011 161.384V161.696C129.523 163.328 126.643 166.232 124.243 168.416L126.811 169.928C129.283 167.552 132.115 164.744 134.227 162.512L132.019 161.24L131.539 161.384H131.011ZM118.603 167.936C122.443 168.944 127.627 170.864 130.147 172.304L131.827 169.808C129.115 168.368 123.835 166.616 120.163 165.776L118.603 167.936ZM122.203 149.456C121.147 154.184 119.419 160.304 118.075 164.048L121.147 164.072C122.323 160.544 124.003 154.616 125.227 149.84L122.203 149.456ZM137.947 168.176V171.032H159.547V168.176H137.947ZM144.163 149.936V169.256H147.139V149.936H144.163ZM150.307 149.912V169.424H153.259V149.912H150.307ZM156.715 154.736C155.875 157.664 154.339 161.288 153.091 163.544L155.467 164.768C156.739 162.44 158.251 159.032 159.331 155.984L156.715 154.736ZM138.259 155.48C139.339 158.408 140.611 162.32 141.139 164.624L144.019 163.592C143.395 161.288 142.003 157.52 140.899 154.688L138.259 155.48Z" fill="black"/>
</svg>
