<svg width="672" height="388" viewBox="0 0 672 388" fill="none" xmlns="http://www.w3.org/2000/svg">
<path d="M359.746 -288.354C167.724 -255.06 35.1987 -77.7492 62.2075 95.1969C65.5818 119.847 72.5742 143.934 82.9835 166.763C144.87 300.482 345.54 435.254 549.742 366.139C708.16 312.471 814.637 154.186 788.095 -5.91312C757.503 -190.873 559.17 -322.924 359.746 -288.354Z" stroke="#343434" stroke-width="6" stroke-miterlimit="10"/>
<path d="M83.0352 166.764C129.054 143.104 152.713 115.841 165.854 95.099C187.097 61.5101 182.942 41.5039 206.445 8.23368C224.052 -16.7006 240.699 -25.4043 283.082 -54.6291C372.887 -116.119 418.776 -147.256 423.84 -176.751C427.709 -199.233 421.035 -235.445 359.746 -288.354" stroke="#343434" stroke-width="6" stroke-miterlimit="10"/>
<path d="M677.306 291.14C663.445 277.223 653.444 260.285 648.194 241.836C641.572 217.318 648.713 206.923 639.131 191.428C624.198 167.303 584.126 155.804 570.232 166.91C560.805 174.511 567.635 185.936 564.311 216.436C559.117 265.838 536.185 278.955 543.405 304.527C546.833 316.786 557.559 333.31 592.956 348.192" stroke="#343434" stroke-width="6" stroke-miterlimit="10"/>
<path d="M535.718 370.503C481.752 337.895 469.131 308.744 467.183 288.664C464.067 256.791 487.596 247.131 502.684 190.594C517.773 134.057 502.918 112.138 522.525 98.286C549.326 79.5301 601.942 103.533 626.042 118.832C648.558 133.125 661.569 149.577 672.918 164.238C692.801 190 707.623 218.924 716.677 249.632" stroke="#343434" stroke-width="6" stroke-miterlimit="10"/>
<path d="M405.349 383.498C343.385 322.547 250.542 211.655 279.525 108.534C293.237 59.7201 332.841 17.8197 381.691 -34.0102C459.861 -116.855 513.696 -136.493 518.475 -188.985C522.266 -230.665 492.739 -267.294 467.885 -291.296" stroke="#343434" stroke-width="6" stroke-miterlimit="10"/>
<path d="M229.455 375.529C286.984 375.529 333.621 331.501 333.621 277.19C333.621 222.878 286.984 178.85 229.455 178.85C171.926 178.85 125.289 222.878 125.289 277.19C125.289 331.501 171.926 375.529 229.455 375.529Z" fill="white" stroke="#343434" stroke-width="6" stroke-miterlimit="10"/>
<path d="M678.709 -197.664C637.091 -178.422 599.387 -152.413 567.324 -120.826C533.823 -87.7033 497.205 -51.6136 507.593 -19.1034C516.293 8.4787 554.339 20.1245 603.033 34.835C643.858 47.2653 670.061 55.2089 701.07 46.4072C754.983 31.1083 777.915 -21.8984 782.33 -32.7106" stroke="#343434" stroke-width="6" stroke-miterlimit="10"/>
<path d="M373.165 180L376.028 162.545H378.415L375.551 180H373.165ZM365.298 175.5L365.699 173.114H379.131L378.73 175.5H365.298ZM367.028 180L369.892 162.545H372.278L369.415 180H367.028ZM366.312 169.432L366.705 167.045H380.136L379.744 169.432H366.312ZM382.773 162.816V177.24H385.629V165.576H399.237V177.096H402.237V162.816H382.773ZM384.645 168.024V170.664H400.653V168.024H384.645ZM384.645 173.208V175.968H400.701V173.208H384.645ZM390.861 159.624V182.16H393.861V159.624H390.861ZM406.365 161.712C407.661 162.888 409.365 164.544 410.109 165.6L412.077 163.608C411.261 162.576 409.509 161.04 408.213 159.96L406.365 161.712ZM408.357 181.92C408.789 181.344 409.581 180.672 413.949 177.264C413.637 176.688 413.205 175.56 413.013 174.792L408.309 178.368L407.733 179.28L408.357 181.92ZM405.261 167.016V169.776H409.989V167.016H405.261ZM408.357 181.92C408.357 180.912 410.949 179.16 410.949 179.16V167.016H408.189V177.216C408.189 178.32 407.493 179.136 406.965 179.496C407.445 180.048 408.141 181.248 408.357 181.92ZM416.541 173.544V175.392H423.933V173.544H416.541ZM413.469 161.256V163.32H426.909V161.256H413.469ZM414.117 164.28V166.224H426.189V164.28H414.117ZM412.725 167.232V169.296H427.677V167.232H412.725ZM416.493 176.736V178.656H423.909V176.736H416.493ZM414.357 170.232V182.184H417.021V172.32H423.885V170.232H414.357ZM423.285 170.232V179.352C423.285 179.64 423.165 179.736 422.853 179.736C422.541 179.76 421.389 179.76 420.405 179.712C420.741 180.384 421.077 181.44 421.173 182.16C422.853 182.16 424.053 182.136 424.893 181.728C425.781 181.344 426.021 180.648 426.021 179.4V170.232H423.285ZM418.701 159.624V167.904H421.557V159.624H418.701Z" fill="black"/>
</svg>
