<svg xmlns="http://www.w3.org/2000/svg" viewBox="0 0 356.18 281.84"><defs><style>.cls-1{fill:none;stroke:#231815;stroke-miterlimit:10;stroke-width:5px;}</style></defs><g id="图层_2" data-name="图层 2"><g id="图层_1-2" data-name="图层 1"><path class="cls-1" d="M145.84,4.75C71.9,18.33,20.87,90.65,31.27,161.19a109.24,109.24,0,0,0,8,29.19C63.1,244.92,140.37,299.89,219,271.7c61-21.89,102-86.45,91.78-151.75C299,44.51,222.63-9.35,145.84,4.75Z"/><path class="cls-1" d="M111.63,15.84c2.33,1.73,21,15.88,18.76,33.19C129,60.33,119.37,67.34,106.2,77c-9.59,7-18,11-34.72,19-10.36,4.93-19.89,8.88-31.73,17.88-3.42,2.6-6.1,4.91-7.85,6.48"/><path class="cls-1" d="M39.29,190.38c17.72-9.65,26.83-20.77,31.89-29.23,8.18-13.7,6.58-21.86,15.63-35.43C93.59,115.55,100,112,116.32,100.08,150.9,75,168.57,62.3,170.52,50.27c1.49-9.17-1.08-23.94-24.68-45.52"/><path class="cls-1" d="M268.12,241.11A47.25,47.25,0,0,1,256.91,221c-2.55-10,.2-14.24-3.49-20.56-5.75-9.84-21.18-14.53-26.53-10-3.63,3.1-1,7.76-2.28,20.2-2,20.15-10.83,25.5-8.05,35.93,1.32,5,5.45,11.74,19.08,17.81"/><path class="cls-1" d="M213.6,273.48c-20.78-13.3-25.64-25.19-26.39-33.38-1.2-13,7.86-16.94,13.67-40s.09-32,7.64-37.65c10.32-7.65,30.58,2.14,39.86,8.38,8.67,5.83,13.68,12.54,18.05,18.52a108.59,108.59,0,0,1,16.85,34.83"/><path class="cls-1" d="M163.4,278.78c-23.86-24.86-59.61-70.09-48.45-112.15,5.28-19.91,20.53-37,39.34-58.14,30.1-33.79,50.83-41.8,52.67-63.21,1.46-17-9.91-31.94-19.48-41.73"/><circle class="cls-1" cx="95.67" cy="235.42" r="40.11"/><path class="cls-1" d="M268.66,41.74a152,152,0,0,0-42.89,31.34c-12.9,13.51-27,28.23-23,41.49,3.35,11.25,18,16,36.75,22,15.72,5.07,25.81,8.31,37.75,4.72,20.76-6.24,29.59-27.86,31.29-32.27"/><circle class="cls-1" cx="242.07" cy="76.95" r="1.75"/><circle class="cls-1" cx="4.25" cy="203.24" r="1.75"/><circle class="cls-1" cx="279.64" cy="116.65" r="3.64"/><circle class="cls-1" cx="24.54" cy="52.35" r="15.72"/><circle class="cls-1" cx="337.96" cy="201.49" r="15.72"/></g></g></svg>